<?xml version="1.0" encoding="utf-8"?>
<!-- Generator: Adobe Illustrator 17.1.0, SVG Export Plug-In . SVG Version: 6.00 Build 0)  -->
<!DOCTYPE svg PUBLIC "-//W3C//DTD SVG 1.1//EN" "http://www.w3.org/Graphics/SVG/1.1/DTD/svg11.dtd">
<svg version="1.1" id="Laag_2" xmlns="http://www.w3.org/2000/svg" xmlns:xlink="http://www.w3.org/1999/xlink" x="0px" y="0px"
	 viewBox="0 0 207.5 262.3" enable-background="new 0 0 207.5 262.3" xml:space="preserve">
<g>
	<g id="gXWOEd_2_">
		<g>
			<path fill="#FFFFFF" d="M118.4,157.7c-5.7-19.5-10.2-39.3-15.7-58.8c-5.1-18-10.2-36-14.2-54.2c-2-8.8-1.5-18,1.5-26.9
				c4.5-13.4,13.6-19.2,27.5-17.5c14.7,1.8,27,8.8,38.1,17.9C174.2,33.5,187.8,52.6,197,75c8.8,21.4,11.6,43.5,10,66.5
				c-1.7,23.9-6.5,46.9-17.9,68.1c-12.4,23.2-30.7,40-55.5,48.8c-9.4,3.3-19.2,4.9-29.3,3.1c-0.5-0.1-1,0-1.5-0.2
				c-7.9-2.6-11.7-5.8-4.7-13.5c12.2-13.2,19.3-28.7,22-46.3C122.4,186.8,121.6,172.2,118.4,157.7
				C118.9,157.6,117.9,157.9,118.4,157.7z"/>
			<path fill="#FFFFFF" d="M0.9,142.3C-2.4,116.4,3.5,85,19.1,55.2c9.4-18,21.8-33.5,38.9-44.7c4.2-2.8,9-4.8,13.7-6.3
				c2.5-0.8,6.4-0.4,8.1,1.1c1.2,1.1,0.7,5.4-0.4,7.6c-5,10.7-9.2,21.5-10.8,33.2c-2.4,17.3-0.9,34.3,2.9,51.2
				c2.5,11.3,5.1,22.6,8,33.9c2.8,10.7,6.4,21.1,8.8,31.9c5.7,24.9,11.2,49.7,2.9,75.2c-5.8,17.9-15.2,19.6-30.5,9.6
				c-15.9-10.4-27-25.4-36.7-41.5C13.3,188.9,5.6,170.1,0.9,142.3z"/>
		</g>
	</g>
</g>
</svg>
