<?xml version="1.0" encoding="utf-8"?>
<!-- Generator: Adobe Illustrator 17.1.0, SVG Export Plug-In . SVG Version: 6.00 Build 0)  -->
<!DOCTYPE svg PUBLIC "-//W3C//DTD SVG 1.1//EN" "http://www.w3.org/Graphics/SVG/1.1/DTD/svg11.dtd">
<svg version="1.1" id="Layer_1" xmlns="http://www.w3.org/2000/svg" xmlns:xlink="http://www.w3.org/1999/xlink" x="0px" y="0px"
	 viewBox="0 0 26 26" enable-background="new 0 0 26 26" xml:space="preserve">
<g>
	<path fill="#E50028" d="M12.9,1c0,0,0.1,0,0.1,0c0,0,0,0,0.1,0c0.7,0.1,1.2,0.4,1.5,1c0.9,1.7,1.9,3.4,2.8,5.2
		c0.9,1.6,1.7,3.2,2.6,4.8c1.1,2,2.1,3.9,3.2,5.9c0.8,1.5,1.6,3,2.4,4.4c0.5,1,0.1,1.9-0.6,2.4c-0.3,0.2-0.6,0.3-0.9,0.3
		c-7.5,0-14.9,0-22.4,0c-0.1,0-0.1,0-0.2,0c-1.1-0.1-2-1.5-1.3-2.7c0.9-1.6,1.7-3.2,2.6-4.7c0.8-1.4,1.5-2.8,2.3-4.3
		C6.4,11.2,7.5,9,8.7,6.9c0.9-1.6,1.8-3.3,2.7-4.9c0.2-0.4,0.5-0.7,0.9-0.8C12.5,1.1,12.7,1,12.9,1z M13,8.4c-0.5,0-1.1,0-1.6,0
		c-0.3,0-0.5,0.2-0.5,0.5c0,0.5,0,1,0.1,1.5c0,1.2,0.1,2.5,0.1,3.7c0,0.4,0,0.8,0,1.2c0,0.3,0.1,0.4,0.4,0.5c0.1,0,0.1,0,0.2,0
		c0.7,0,1.4,0,2.1,0c0.2,0,0.3,0,0.5,0c0.3,0,0.5-0.2,0.5-0.5c0-0.2,0-0.3,0-0.5c0.1-1.4,0.1-2.9,0.2-4.3c0-0.5,0-1.1,0.1-1.6
		c0-0.4-0.2-0.6-0.5-0.6C14,8.4,13.5,8.4,13,8.4z M14.9,19.5c0-0.5,0-0.9,0-1.4c0-0.3-0.2-0.5-0.5-0.5c-0.9,0-1.8,0-2.7,0
		c-0.3,0-0.5,0.2-0.5,0.5c0,0.9,0,1.8,0,2.7c0,0.4,0.2,0.5,0.5,0.5c0.4,0,0.7,0,1.1,0c0.5,0,1.1,0,1.6,0c0.4,0,0.5-0.2,0.5-0.5
		C14.9,20.4,14.9,19.9,14.9,19.5z"/>
</g>
</svg>
