<?xml version="1.0" encoding="utf-8"?>
<!-- Generator: Adobe Illustrator 17.1.0, SVG Export Plug-In . SVG Version: 6.00 Build 0)  -->
<!DOCTYPE svg PUBLIC "-//W3C//DTD SVG 1.1//EN" "http://www.w3.org/Graphics/SVG/1.1/DTD/svg11.dtd">
<svg version="1.1" id="Layer_1" xmlns="http://www.w3.org/2000/svg" xmlns:xlink="http://www.w3.org/1999/xlink" x="0px" y="0px"
	 viewBox="0 0 472 472" enable-background="new 0 0 472 472" xml:space="preserve">
<path fill="#F2F2F2" d="M472,446c0,14.4-11.6,26-26,26H26c-14.4,0-26-11.6-26-26V26C0,11.6,11.6,0,26,0h420c14.4,0,26,11.6,26,26
	V446z"/>
<g>
	<path fill="#CCCCCC" d="M228.3,71.1c-2.5-4.8-4.6-9.9-7.7-14.2c-3.5-4.8-7.1-4.5-8.6,1.1c-2.5,9.4-5.1,19.3-4.7,28.9
		c0.6,15,3.5,29.9,5.6,44.9c0.3,2.1,1.2,4.2,1.8,6.3c0.7,0.1,1.4,0.1,2.2,0.2c3.2-18.3,6.4-36.7,9.6-55c0.3,0,0.5,0,0.8,0
		c0,5.5,0.3,11-0.1,16.5c-1.4,19.1-3.1,38.1-4.4,57.2c-0.3,4.3-0.3,9,1.2,13c10.5,29.3,23.9,57.3,47.1,78.8
		c11.4,10.6,25.1,18.8,38.1,27.6c2.3,1.6,6.2,1.3,9.3,1.2c20.3-0.3,40.7-1.5,61-0.7c10.2,0.4,20.6,3.7,30.2,7.5
		c9,3.5,11.3,11.4,7.2,19.7c-3.1-8.7-10.3-11.2-17.8-12.8c-21.1-4.7-42.4-5.2-63.8-3.1c-0.3,0-0.5,0.5-1.5,1.4
		c26.5,10.6,52.1,22.4,81.6,18.6c-0.4,5-4.3,6.8-8.4,7.8c-12.5,3.1-24.9,0.9-37.1-1.7c-20-4.3-39.2-11.1-57.2-20.9
		c-8.3-4.5-16.2-2.4-24.1-1.4c-41.4,5.4-82.2,13.6-122.1,26.3c-7.4,2.3-12.3,6.1-16.2,12.9c-14.7,25.3-30,50.4-51.5,70.8
		c-6.6,6.2-14.8,11.1-23,15c-8.2,3.9-16.1-0.9-22.1-6c-2.1-1.7-1.4-8.1-0.4-11.8c3.5-12.2,11.6-21.6,20.4-30.3
		c13.1-13,28.1-23.3,45.4-30.6c-1.5,1.3-3,2.6-4.6,3.9c-17,13.8-32.4,29.3-44.2,47.9c-3.9,6.1-6.5,13-9.7,19.6
		c0.7,0.7,1.4,1.4,2.1,2.2c4.4-1.9,9.7-2.9,13.1-6c10.1-9.2,20.4-18.5,28.7-29.2c22.8-29.2,40-62,57-94.8
		c18.1-34.8,34.2-70.4,45.4-108c1.4-4.7,1.6-10.5,0.4-15.2c-5.8-21.5-9.5-43.4-10.2-65.5c-0.4-10.5,1.3-21.3,3.3-31.7
		c2.4-11.9,8.2-10.9,20.9-9.8c5.9,0.5,9.1,8.1,7.6,16.2C228.7,69,228.4,70.3,228.3,71.1z M288.2,280.4
		c-34.5-22.2-55.3-54.7-71.5-91.2c-13.2,45.8-35.6,86.8-57.7,128.2C200.9,300.5,243.8,288.7,288.2,280.4z"/>
</g>
<radialGradient id="SVGID_1_" cx="236" cy="0" r="305.4263" gradientUnits="userSpaceOnUse">
	<stop  offset="0" style="stop-color:#FFFFFF"/>
	<stop  offset="1" style="stop-color:#FFFFFF;stop-opacity:0"/>
</radialGradient>
<path opacity="0.24" fill="url(#SVGID_1_)" d="M236,305.4c93.5,0,177.2-42,233.2-108.2c1.8-2.2,2.8-4.9,2.8-7.8V25.9
	C472,11.6,460.4,0,446.1,0H25.9C11.6,0,0,11.6,0,25.9v163.5c0,2.8,1,5.6,2.8,7.8C58.8,263.4,142.5,305.4,236,305.4z"/>
<g>
	<g>
		<rect x="36.1" y="306" fill="none" width="190.8" height="139.8"/>
		<text transform="matrix(1 0 0 1 36.125 433.0791)" fill="#F4F4F4" font-family="'Museo-500'" font-size="180">P</text>
	</g>
	<g>
		<rect x="30.1" y="312" fill="none" width="190.8" height="139.8"/>
		<text transform="matrix(1 0 0 1 30.125 439.0791)" fill="#ED1C24" font-family="'Museo-500'" font-size="180">P</text>
	</g>
</g>
</svg>
