<?xml version="1.0" encoding="utf-8"?>
<!-- Generator: Adobe Illustrator 17.1.0, SVG Export Plug-In . SVG Version: 6.00 Build 0)  -->
<!DOCTYPE svg PUBLIC "-//W3C//DTD SVG 1.1//EN" "http://www.w3.org/Graphics/SVG/1.1/DTD/svg11.dtd">
<svg version="1.1" id="Layer_1" xmlns="http://www.w3.org/2000/svg" xmlns:xlink="http://www.w3.org/1999/xlink" x="0px" y="0px"
	 viewBox="0 0 472 472" enable-background="new 0 0 472 472" xml:space="preserve">
<path fill="#F2F2F2" d="M472,446.5c0,14.1-11.4,25.5-25.5,25.5h-421C11.4,472,0,460.6,0,446.5v-421C0,11.4,11.4,0,25.5,0h421
	C460.6,0,472,11.4,472,25.5V446.5z"/>
<rect x="53" y="53" fill="#CCCCCC" width="38" height="15"/>
<rect x="100" y="53" fill="#CCCCCC" width="38" height="15"/>
<rect x="53" y="76" fill="#CCCCCC" width="38" height="15"/>
<rect x="100" y="76" fill="#CCCCCC" width="38" height="15"/>
<rect x="147" y="53" fill="#CCCCCC" width="38" height="15"/>
<rect x="147" y="76" fill="#CCCCCC" width="38" height="15"/>
<rect x="53" y="99" fill="#CCCCCC" width="38" height="16"/>
<rect x="100" y="99" fill="#CCCCCC" width="38" height="16"/>
<rect x="147" y="99" fill="#CCCCCC" width="38" height="16"/>
<rect x="53" y="123" fill="#CCCCCC" width="38" height="15"/>
<rect x="100" y="123" fill="#CCCCCC" width="38" height="15"/>
<rect x="147" y="123" fill="#CCCCCC" width="38" height="15"/>
<rect x="53" y="147" fill="#CCCCCC" width="38" height="14"/>
<rect x="100" y="147" fill="#CCCCCC" width="38" height="14"/>
<rect x="147" y="147" fill="#CCCCCC" width="38" height="14"/>
<rect x="193" y="53" fill="#CCCCCC" width="39" height="15"/>
<rect x="193" y="76" fill="#CCCCCC" width="39" height="15"/>
<rect x="240" y="53" fill="#CCCCCC" width="39" height="15"/>
<rect x="240" y="76" fill="#CCCCCC" width="39" height="15"/>
<rect x="193" y="99" fill="#CCCCCC" width="39" height="16"/>
<rect x="240" y="99" fill="#CCCCCC" width="39" height="16"/>
<rect x="193" y="123" fill="#CCCCCC" width="39" height="15"/>
<rect x="240" y="123" fill="#CCCCCC" width="39" height="15"/>
<rect x="193" y="147" fill="#CCCCCC" width="39" height="14"/>
<rect x="240" y="147" fill="#CCCCCC" width="39" height="14"/>
<rect x="53" y="170" fill="#CCCCCC" width="38" height="15"/>
<rect x="100" y="170" fill="#CCCCCC" width="38" height="15"/>
<rect x="147" y="170" fill="#CCCCCC" width="38" height="15"/>
<rect x="53" y="193" fill="#CCCCCC" width="38" height="15"/>
<rect x="100" y="193" fill="#CCCCCC" width="38" height="15"/>
<rect x="147" y="193" fill="#CCCCCC" width="38" height="15"/>
<rect x="53" y="216" fill="#CCCCCC" width="38" height="16"/>
<rect x="100" y="216" fill="#CCCCCC" width="38" height="16"/>
<rect x="147" y="216" fill="#CCCCCC" width="38" height="16"/>
<rect x="53" y="240" fill="#CCCCCC" width="38" height="15"/>
<rect x="100" y="240" fill="#CCCCCC" width="38" height="15"/>
<rect x="147" y="240" fill="#CCCCCC" width="38" height="15"/>
<rect x="193" y="170" fill="#CCCCCC" width="39" height="15"/>
<rect x="240" y="170" fill="#CCCCCC" width="39" height="15"/>
<rect x="193" y="193" fill="#CCCCCC" width="39" height="15"/>
<rect x="240" y="193" fill="#CCCCCC" width="39" height="15"/>
<rect x="193" y="216" fill="#CCCCCC" width="39" height="16"/>
<rect x="240" y="216" fill="#CCCCCC" width="39" height="16"/>
<rect x="193" y="240" fill="#CCCCCC" width="39" height="15"/>
<rect x="240" y="240" fill="#CCCCCC" width="39" height="15"/>
<rect x="287" y="53" fill="#CCCCCC" width="38" height="15"/>
<rect x="287" y="76" fill="#CCCCCC" width="38" height="15"/>
<rect x="287" y="99" fill="#CCCCCC" width="38" height="16"/>
<rect x="287" y="123" fill="#CCCCCC" width="38" height="15"/>
<rect x="287" y="147" fill="#CCCCCC" width="38" height="14"/>
<rect x="334" y="53" fill="#CCCCCC" width="38" height="15"/>
<rect x="334" y="76" fill="#CCCCCC" width="38" height="15"/>
<rect x="381" y="53" fill="#CCCCCC" width="38" height="15"/>
<rect x="381" y="76" fill="#CCCCCC" width="38" height="15"/>
<rect x="334" y="99" fill="#CCCCCC" width="38" height="16"/>
<rect x="381" y="99" fill="#CCCCCC" width="38" height="16"/>
<rect x="334" y="123" fill="#CCCCCC" width="38" height="15"/>
<rect x="381" y="123" fill="#CCCCCC" width="38" height="15"/>
<rect x="334" y="147" fill="#CCCCCC" width="38" height="14"/>
<rect x="381" y="147" fill="#CCCCCC" width="38" height="14"/>
<rect x="287" y="170" fill="#CCCCCC" width="38" height="15"/>
<rect x="287" y="193" fill="#CCCCCC" width="38" height="15"/>
<rect x="287" y="216" fill="#CCCCCC" width="38" height="16"/>
<rect x="287" y="240" fill="#CCCCCC" width="38" height="15"/>
<rect x="334" y="170" fill="#CCCCCC" width="38" height="15"/>
<rect x="381" y="170" fill="#CCCCCC" width="38" height="15"/>
<rect x="334" y="193" fill="#CCCCCC" width="38" height="15"/>
<rect x="381" y="193" fill="#CCCCCC" width="38" height="15"/>
<rect x="334" y="216" fill="#CCCCCC" width="38" height="16"/>
<rect x="381" y="216" fill="#CCCCCC" width="38" height="16"/>
<rect x="334" y="240" fill="#CCCCCC" width="38" height="15"/>
<rect x="381" y="240" fill="#CCCCCC" width="38" height="15"/>
<rect x="53" y="263" fill="#CCCCCC" width="38" height="15"/>
<rect x="100" y="263" fill="#CCCCCC" width="38" height="15"/>
<rect x="147" y="263" fill="#CCCCCC" width="38" height="15"/>
<rect x="53" y="286" fill="#CCCCCC" width="38" height="15"/>
<rect x="100" y="286" fill="#CCCCCC" width="38" height="15"/>
<rect x="147" y="286" fill="#CCCCCC" width="38" height="15"/>
<rect x="53" y="310" fill="#CCCCCC" width="38" height="14"/>
<rect x="100" y="310" fill="#CCCCCC" width="38" height="14"/>
<rect x="147" y="310" fill="#CCCCCC" width="38" height="14"/>
<rect x="193" y="263" fill="#CCCCCC" width="39" height="15"/>
<rect x="240" y="263" fill="#CCCCCC" width="39" height="15"/>
<rect x="193" y="286" fill="#CCCCCC" width="39" height="15"/>
<rect x="240" y="286" fill="#CCCCCC" width="39" height="15"/>
<rect x="193" y="310" fill="#CCCCCC" width="39" height="14"/>
<rect x="240" y="310" fill="#CCCCCC" width="39" height="14"/>
<rect x="53" y="335" fill="#CCCCCC" width="38" height="15"/>
<rect x="100" y="335" fill="#CCCCCC" width="38" height="15"/>
<rect x="147" y="335" fill="#CCCCCC" width="38" height="15"/>
<rect x="53" y="358" fill="#CCCCCC" width="38" height="15"/>
<rect x="100" y="358" fill="#CCCCCC" width="38" height="15"/>
<rect x="147" y="358" fill="#CCCCCC" width="38" height="15"/>
<rect x="53" y="381" fill="#CCCCCC" width="38" height="15"/>
<rect x="100" y="381" fill="#CCCCCC" width="38" height="15"/>
<rect x="147" y="381" fill="#CCCCCC" width="38" height="15"/>
<rect x="53" y="404" fill="#CCCCCC" width="38" height="15"/>
<rect x="100" y="404" fill="#CCCCCC" width="38" height="15"/>
<rect x="147" y="404" fill="#CCCCCC" width="38" height="15"/>
<rect x="193" y="335" fill="#CCCCCC" width="39" height="15"/>
<rect x="240" y="335" fill="#CCCCCC" width="39" height="15"/>
<rect x="193" y="358" fill="#CCCCCC" width="39" height="15"/>
<rect x="240" y="358" fill="#CCCCCC" width="39" height="15"/>
<rect x="193" y="381" fill="#CCCCCC" width="39" height="15"/>
<rect x="240" y="381" fill="#CCCCCC" width="39" height="15"/>
<rect x="193" y="404" fill="#CCCCCC" width="39" height="15"/>
<rect x="240" y="404" fill="#CCCCCC" width="39" height="15"/>
<rect x="287" y="263" fill="#CCCCCC" width="38" height="15"/>
<rect x="287" y="286" fill="#CCCCCC" width="38" height="15"/>
<rect x="287" y="310" fill="#CCCCCC" width="38" height="14"/>
<rect x="334" y="263" fill="#CCCCCC" width="38" height="15"/>
<rect x="381" y="263" fill="#CCCCCC" width="38" height="15"/>
<rect x="334" y="286" fill="#CCCCCC" width="38" height="15"/>
<rect x="381" y="286" fill="#CCCCCC" width="38" height="15"/>
<rect x="334" y="310" fill="#CCCCCC" width="38" height="14"/>
<rect x="381" y="310" fill="#CCCCCC" width="38" height="14"/>
<rect x="287" y="335" fill="#CCCCCC" width="38" height="15"/>
<rect x="287" y="358" fill="#CCCCCC" width="38" height="15"/>
<rect x="287" y="381" fill="#CCCCCC" width="38" height="15"/>
<rect x="287" y="404" fill="#CCCCCC" width="38" height="15"/>
<rect x="334" y="335" fill="#CCCCCC" width="38" height="15"/>
<rect x="381" y="335" fill="#CCCCCC" width="38" height="15"/>
<rect x="334" y="358" fill="#CCCCCC" width="38" height="15"/>
<rect x="381" y="358" fill="#CCCCCC" width="38" height="15"/>
<rect x="334" y="381" fill="#CCCCCC" width="38" height="15"/>
<rect x="381" y="381" fill="#CCCCCC" width="38" height="15"/>
<rect x="334" y="404" fill="#CCCCCC" width="38" height="15"/>
<rect x="381" y="404" fill="#CCCCCC" width="38" height="15"/>
<radialGradient id="SVGID_1_" cx="236" cy="0" r="305.4263" gradientUnits="userSpaceOnUse">
	<stop  offset="0" style="stop-color:#FFFFFF"/>
	<stop  offset="1" style="stop-color:#FFFFFF;stop-opacity:0"/>
</radialGradient>
<path opacity="0.24" fill="url(#SVGID_1_)" d="M236,305.4c93.5,0,177.2-42,233.2-108.2c1.8-2.2,2.8-4.9,2.8-7.8V25.9
	C472,11.6,460.4,0,446.1,0H25.9C11.6,0,0,11.6,0,25.9v163.5c0,2.8,1,5.6,2.8,7.8C58.8,263.4,142.5,305.4,236,305.4z"/>
<g>
	<g>
		<rect x="36.1" y="306" fill="none" width="190.8" height="139.8"/>
		<text transform="matrix(1 0 0 1 36.125 433.0791)" fill="#F4F4F4" font-family="'Museo-500'" font-size="180">X</text>
	</g>
	<g>
		<rect x="30.1" y="312" fill="none" width="190.8" height="139.8"/>
		<text transform="matrix(1 0 0 1 30.125 439.0791)" fill="#009245" font-family="'Museo-500'" font-size="180">X</text>
	</g>
</g>
</svg>
