<?xml version="1.0" encoding="utf-8"?>
<!-- Generator: Adobe Illustrator 17.1.0, SVG Export Plug-In . SVG Version: 6.00 Build 0)  -->
<!DOCTYPE svg PUBLIC "-//W3C//DTD SVG 1.1//EN" "http://www.w3.org/Graphics/SVG/1.1/DTD/svg11.dtd">
<svg version="1.1" id="Layer_1" xmlns="http://www.w3.org/2000/svg" xmlns:xlink="http://www.w3.org/1999/xlink" x="0px" y="0px"
	 viewBox="0 0 472 472" enable-background="new 0 0 472 472" xml:space="preserve">
<path fill="#F2F2F2" d="M472,446c0,14.4-11.6,26-26,26H26c-14.4,0-26-11.6-26-26V26C0,11.6,11.6,0,26,0h420c14.4,0,26,11.6,26,26
	V446z"/>
<path fill="#CCCCCC" d="M419,398c0,1.1-0.9,2-2,2H55c-1.1,0-2-0.9-2-2v-4c0-1.1,0.9-2,2-2h362c1.1,0,2,0.9,2,2V398z"/>
<path fill="#CCCCCC" d="M359,417c0,1.1-0.9,2-2,2H55c-1.1,0-2-0.9-2-2v-4c0-1.1,0.9-2,2-2h302c1.1,0,2,0.9,2,2V417z"/>
<path fill="#999999" d="M170,380c0,1.1-0.9,2-2,2h-14c-1.1,0-2-0.9-2-2V191c0-1.1,0.9-2,2-2h14c1.1,0,2,0.9,2,2V380z"/>
<path fill="#CCCCCC" d="M195,380c0,1.1-0.9,2-2,2h-14c-1.1,0-2-0.9-2-2V221c0-1.1,0.9-2,2-2h14c1.1,0,2,0.9,2,2V380z"/>
<path fill="#CCCCCC" d="M270,380c0,1.1-0.9,2-2,2h-14c-1.1,0-2-0.9-2-2v-99c0-1.1,0.9-2,2-2h14c1.1,0,2,0.9,2,2V380z"/>
<path fill="#B3B3B3" d="M220,380c0,1.1-0.9,2-2,2h-14c-1.1,0-2-0.9-2-2V251c0-1.1,0.9-2,2-2h14c1.1,0,2,0.9,2,2V380z"/>
<path fill="#CCCCCC" d="M245,380c0,1.1-0.9,2-2,2h-14c-1.1,0-2-0.9-2-2V221c0-1.1,0.9-2,2-2h14c1.1,0,2,0.9,2,2V380z"/>
<path fill="#CCCCCC" d="M71,380c0,1.1-0.9,2-2,2H55c-1.1,0-2-0.9-2-2V221c0-1.1,0.9-2,2-2h14c1.1,0,2,0.9,2,2V380z"/>
<path fill="#CCCCCC" d="M146,380c0,1.1-0.9,2-2,2h-14c-1.1,0-2-0.9-2-2V231c0-1.1,0.9-2,2-2h14c1.1,0,2,0.9,2,2V380z"/>
<path fill="#999999" d="M320,380c0,1.1-0.9,2-2,2h-14c-1.1,0-2-0.9-2-2V191c0-1.1,0.9-2,2-2h14c1.1,0,2,0.9,2,2V380z"/>
<path fill="#CCCCCC" d="M344,380c0,1.1-0.9,2-2,2h-14c-1.1,0-2-0.9-2-2V221c0-1.1,0.9-2,2-2h14c1.1,0,2,0.9,2,2V380z"/>
<path fill="#CCCCCC" d="M419,380c0,1.1-0.9,2-2,2h-14c-1.1,0-2-0.9-2-2v-99c0-1.1,0.9-2,2-2h14c1.1,0,2,0.9,2,2V380z"/>
<path fill="#B3B3B3" d="M369,380c0,1.1-0.9,2-2,2h-14c-1.1,0-2-0.9-2-2V251c0-1.1,0.9-2,2-2h14c1.1,0,2,0.9,2,2V380z"/>
<path fill="#CCCCCC" d="M394,380c0,1.1-0.9,2-2,2h-14c-1.1,0-2-0.9-2-2V221c0-1.1,0.9-2,2-2h14c1.1,0,2,0.9,2,2V380z"/>
<path fill="#CCCCCC" d="M295,380c0,1.1-0.9,2-2,2h-14c-1.1,0-2-0.9-2-2V231c0-1.1,0.9-2,2-2h14c1.1,0,2,0.9,2,2V380z"/>
<path fill="#B3B3B3" d="M96,380c0,1.1-0.9,2-2,2H80c-1.1,0-2-0.9-2-2v-79c0-1.1,0.9-2,2-2h14c1.1,0,2,0.9,2,2V380z"/>
<path fill="#CCCCCC" d="M121,380c0,1.1-0.9,2-2,2h-14c-1.1,0-2-0.9-2-2V221c0-1.1,0.9-2,2-2h14c1.1,0,2,0.9,2,2V380z"/>
<g opacity="0.24">
	<path fill="#666666" d="M364,59.3c-26,0.1-47.7,21.6-47.7,48c0,26.5,21.6,48,48.1,48c21.1,0,38.8-13.6,45.3-32.4L364,107.5V59.3z"
		/>
	<path opacity="0.24" fill="#666666" d="M370.5,53c-0.1,0-0.5,0-0.5,0v48.2l46,15.4c1.7-4.9,2.6-10.1,2.6-15.6
		C418.6,74.5,397.1,53,370.5,53z"/>
</g>
<radialGradient id="SVGID_1_" cx="236" cy="0" r="305.4263" gradientUnits="userSpaceOnUse">
	<stop  offset="0" style="stop-color:#FFFFFF"/>
	<stop  offset="1" style="stop-color:#FFFFFF;stop-opacity:0"/>
</radialGradient>
<path opacity="0.24" fill="url(#SVGID_1_)" d="M236,305.4c93.5,0,177.2-42,233.2-108.2c1.8-2.2,2.8-4.9,2.8-7.8V25.9
	C472,11.6,460.4,0,446.1,0H25.9C11.6,0,0,11.6,0,25.9v163.5c0,2.8,1,5.6,2.8,7.8C58.8,263.4,142.5,305.4,236,305.4z"/>
<g>
	<g>
		<rect x="36.1" y="306" fill="none" width="190.8" height="139.8"/>
		<text transform="matrix(1 0 0 1 36.125 433.0791)" fill="#F4F4F4" font-family="'Museo-500'" font-size="180">P</text>
	</g>
	<g>
		<rect x="30.1" y="312" fill="none" width="190.8" height="139.8"/>
		<text transform="matrix(1 0 0 1 30.125 439.0791)" fill="#AD0052" font-family="'Museo-500'" font-size="180">P</text>
	</g>
</g>
</svg>
