<?xml version="1.0" encoding="utf-8"?>
<!-- Generator: Adobe Illustrator 17.1.0, SVG Export Plug-In . SVG Version: 6.00 Build 0)  -->
<!DOCTYPE svg PUBLIC "-//W3C//DTD SVG 1.1//EN" "http://www.w3.org/Graphics/SVG/1.1/DTD/svg11.dtd">
<svg version="1.1" id="Layer_1" xmlns="http://www.w3.org/2000/svg" xmlns:xlink="http://www.w3.org/1999/xlink" x="0px" y="0px"
	 viewBox="0 0 472 472" enable-background="new 0 0 472 472" xml:space="preserve">
<path fill="#F2F2F2" d="M472,446c0,14.4-11.6,26-26,26H26c-14.4,0-26-11.6-26-26V26C0,11.6,11.6,0,26,0h420c14.4,0,26,11.6,26,26
	V446z"/>
<path fill="#CCCCCC" d="M419,59c0,1.1-0.9,2-2,2H55c-1.1,0-2-0.9-2-2v-4c0-1.1,0.9-2,2-2h362c1.1,0,2,0.9,2,2V59z"/>
<path fill="#CCCCCC" d="M419,78c0,1.1-0.9,2-2,2H55c-1.1,0-2-0.9-2-2v-4c0-1.1,0.9-2,2-2h362c1.1,0,2,0.9,2,2V78z"/>
<path fill="#CCCCCC" d="M419,96c0,1.1-0.9,2-2,2H55c-1.1,0-2-0.9-2-2v-4c0-1.1,0.9-2,2-2h362c1.1,0,2,0.9,2,2V96z"/>
<path fill="#CCCCCC" d="M419,115c0,1.1-0.9,2-2,2H55c-1.1,0-2-0.9-2-2v-4c0-1.1,0.9-2,2-2h362c1.1,0,2,0.9,2,2V115z"/>
<path fill="#CCCCCC" d="M419,133c0,1.1-0.9,2-2,2H55c-1.1,0-2-0.9-2-2v-4c0-1.1,0.9-2,2-2h362c1.1,0,2,0.9,2,2V133z"/>
<path fill="#CCCCCC" d="M419,152c0,1.1-0.9,2-2,2H55c-1.1,0-2-0.9-2-2v-4c0-1.1,0.9-2,2-2h362c1.1,0,2,0.9,2,2V152z"/>
<path fill="#CCCCCC" d="M352,170c0,1.1-0.9,2-2,2H55c-1.1,0-2-0.9-2-2v-4c0-1.1,0.9-2,2-2h295c1.1,0,2,0.9,2,2V170z"/>
<path fill="#CCCCCC" d="M419,219c0,1.1-0.9,2-2,2H55c-1.1,0-2-0.9-2-2v-4c0-1.1,0.9-2,2-2h362c1.1,0,2,0.9,2,2V219z"/>
<path fill="#CCCCCC" d="M419,237c0,1.1-0.9,2-2,2H55c-1.1,0-2-0.9-2-2v-4c0-1.1,0.9-2,2-2h362c1.1,0,2,0.9,2,2V237z"/>
<path fill="#CCCCCC" d="M419,255c0,1.1-0.9,2-2,2H55c-1.1,0-2-0.9-2-2v-4c0-1.1,0.9-2,2-2h362c1.1,0,2,0.9,2,2V255z"/>
<path fill="#CCCCCC" d="M419,273c0,1.1-0.9,2-2,2H55c-1.1,0-2-0.9-2-2v-4c0-1.1,0.9-2,2-2h362c1.1,0,2,0.9,2,2V273z"/>
<path fill="#CCCCCC" d="M419,291c0,1.1-0.9,2-2,2H55c-1.1,0-2-0.9-2-2v-4c0-1.1,0.9-2,2-2h362c1.1,0,2,0.9,2,2V291z"/>
<path fill="#CCCCCC" d="M419,309c0,1.1-0.9,2-2,2H55c-1.1,0-2-0.9-2-2v-4c0-1.1,0.9-2,2-2h362c1.1,0,2,0.9,2,2V309z"/>
<path fill="#CCCCCC" d="M419,327c0,1.1-0.9,2-2,2H55c-1.1,0-2-0.9-2-2v-4c0-1.1,0.9-2,2-2h362c1.1,0,2,0.9,2,2V327z"/>
<path fill="#CCCCCC" d="M419,345c0,1.1-0.9,2-2,2H55c-1.1,0-2-0.9-2-2v-4c0-1.1,0.9-2,2-2h362c1.1,0,2,0.9,2,2V345z"/>
<path fill="#CCCCCC" d="M419,363c0,1.1-0.9,2-2,2H55c-1.1,0-2-0.9-2-2v-4c0-1.1,0.9-2,2-2h362c1.1,0,2,0.9,2,2V363z"/>
<path fill="#CCCCCC" d="M419,381c0,1.1-0.9,2-2,2H55c-1.1,0-2-0.9-2-2v-4c0-1.1,0.9-2,2-2h362c1.1,0,2,0.9,2,2V381z"/>
<path fill="#CCCCCC" d="M419,399c0,1.1-0.9,2-2,2H55c-1.1,0-2-0.9-2-2v-4c0-1.1,0.9-2,2-2h362c1.1,0,2,0.9,2,2V399z"/>
<path fill="#CCCCCC" d="M335,417c0,1.1-0.9,2-2,2H55c-1.1,0-2-0.9-2-2v-4c0-1.1,0.9-2,2-2h278c1.1,0,2,0.9,2,2V417z"/>
<radialGradient id="SVGID_1_" cx="236" cy="0" r="305.4263" gradientUnits="userSpaceOnUse">
	<stop  offset="0" style="stop-color:#FFFFFF"/>
	<stop  offset="1" style="stop-color:#FFFFFF;stop-opacity:0"/>
</radialGradient>
<path opacity="0.24" fill="url(#SVGID_1_)" d="M236,305.4c93.5,0,177.2-42,233.2-108.2c1.8-2.2,2.8-4.9,2.8-7.8V25.9
	C472,11.6,460.4,0,446.1,0H25.9C11.6,0,0,11.6,0,25.9v163.5c0,2.8,1,5.6,2.8,7.8C58.8,263.4,142.5,305.4,236,305.4z"/>
<g>
	<g>
		<rect x="36.1" y="306" fill="none" width="190.8" height="139.8"/>
		<text transform="matrix(1 0 0 1 36.125 433.0791)" fill="#F4F4F4" font-family="'Museo-500'" font-size="180">T</text>
	</g>
	<g>
		<rect x="30.1" y="312" fill="none" width="190.8" height="139.8"/>
		<text transform="matrix(1 0 0 1 30.125 439.0791)" fill="#4D4D4D" font-family="'Museo-500'" font-size="180">T</text>
	</g>
</g>
</svg>
