<?xml version="1.0" encoding="utf-8"?>
<!-- Generator: Adobe Illustrator 17.1.0, SVG Export Plug-In . SVG Version: 6.00 Build 0)  -->
<!DOCTYPE svg PUBLIC "-//W3C//DTD SVG 1.1//EN" "http://www.w3.org/Graphics/SVG/1.1/DTD/svg11.dtd">
<svg version="1.1" id="Layer_1" xmlns="http://www.w3.org/2000/svg" xmlns:xlink="http://www.w3.org/1999/xlink" x="0px" y="0px"
	 viewBox="0 0 472 472" enable-background="new 0 0 472 472" xml:space="preserve">
<path fill="#F3A02A" d="M472,446c0,14.4-11.6,26-26,26H26c-14.4,0-26-11.6-26-26V26C0,11.6,11.6,0,26,0h420c14.4,0,26,11.6,26,26
	V446z"/>
<path fill="#E6E6E6" d="M363,375.5c0,5.2-4.3,9.5-9.5,9.5h-291c-5.2,0-9.5-4.3-9.5-9.5v-291c0-5.2,4.3-9.5,9.5-9.5h291
	c5.2,0,9.5,4.3,9.5,9.5V375.5z"/>
<path fill="#CCCCCC" d="M234,113.7c0,0.7-0.6,1.3-1.3,1.3H89.3c-0.7,0-1.3-0.6-1.3-1.3v-2.4c0-0.7,0.6-1.3,1.3-1.3h143.4
	c0.7,0,1.3,0.6,1.3,1.3V113.7z"/>
<path fill="#CCCCCC" d="M234,125.7c0,0.7-0.6,1.3-1.3,1.3H89.3c-0.7,0-1.3-0.6-1.3-1.3v-2.4c0-0.7,0.6-1.3,1.3-1.3h143.4
	c0.7,0,1.3,0.6,1.3,1.3V125.7z"/>
<path fill="#CCCCCC" d="M234,137.7c0,0.7-0.6,1.3-1.3,1.3H89.3c-0.7,0-1.3-0.6-1.3-1.3v-2.4c0-0.7,0.6-1.3,1.3-1.3h143.4
	c0.7,0,1.3,0.6,1.3,1.3V137.7z"/>
<path fill="#CCCCCC" d="M234,150.7c0,0.7-0.6,1.3-1.3,1.3H89.3c-0.7,0-1.3-0.6-1.3-1.3v-2.4c0-0.7,0.6-1.3,1.3-1.3h143.4
	c0.7,0,1.3,0.6,1.3,1.3V150.7z"/>
<g id="Photo_4_">
	<rect x="251" y="110" fill="#FFFFFF" width="77" height="79"/>
	<g>
		<radialGradient id="SVGID_1_" cx="291.6885" cy="167.2799" r="122.4779" gradientUnits="userSpaceOnUse">
			<stop  offset="0" style="stop-color:#9DC6FF"/>
			<stop  offset="1" style="stop-color:#416DA3"/>
		</radialGradient>
		<rect x="257" y="116" fill="url(#SVGID_1_)" width="65" height="67"/>
		<path fill="#39B54A" d="M322,167.3c-26,0.8-47.6,7.7-49.2,15.7H322V167.3z"/>
		<linearGradient id="SVGID_2_" gradientUnits="userSpaceOnUse" x1="284.1088" y1="167.6169" x2="280.8656" y2="184.049">
			<stop  offset="0" style="stop-color:#9DC663"/>
			<stop  offset="0.1378" style="stop-color:#9CC645"/>
			<stop  offset="1" style="stop-color:#8CC63F"/>
		</linearGradient>
		<path fill="url(#SVGID_2_)" d="M300.4,173c-9.1-5.2-24.4-9-43.4-10.7V183h52.2C308.9,180,305.7,176,300.4,173z"/>
	</g>
</g>
<path fill="#F2F2F2" d="M419,355.3c0,4.8-3.9,8.8-8.8,8.8H117.8c-4.8,0-8.8-3.9-8.8-8.8V62.8c0-4.8,3.9-8.8,8.8-8.8h292.5
	c4.8,0,8.8,3.9,8.8,8.8V355.3z"/>
<path fill="#CCCCCC" d="M290,92.7c0,0.7-0.6,1.3-1.3,1.3H145.3c-0.7,0-1.3-0.6-1.3-1.3v-2.4c0-0.7,0.6-1.3,1.3-1.3h143.4
	c0.7,0,1.3,0.6,1.3,1.3V92.7z"/>
<path fill="#CCCCCC" d="M290,104.7c0,0.7-0.6,1.3-1.3,1.3H145.3c-0.7,0-1.3-0.6-1.3-1.3v-2.4c0-0.7,0.6-1.3,1.3-1.3h143.4
	c0.7,0,1.3,0.6,1.3,1.3V104.7z"/>
<path fill="#CCCCCC" d="M290,116.7c0,0.7-0.6,1.3-1.3,1.3H145.3c-0.7,0-1.3-0.6-1.3-1.3v-2.4c0-0.7,0.6-1.3,1.3-1.3h143.4
	c0.7,0,1.3,0.6,1.3,1.3V116.7z"/>
<path fill="#CCCCCC" d="M290,129.7c0,0.7-0.6,1.3-1.3,1.3H145.3c-0.7,0-1.3-0.6-1.3-1.3v-2.4c0-0.7,0.6-1.3,1.3-1.3h143.4
	c0.7,0,1.3,0.6,1.3,1.3V129.7z"/>
<path fill="#CCCCCC" d="M290,140.7c0,0.7-0.6,1.3-1.3,1.3H145.3c-0.7,0-1.3-0.6-1.3-1.3v-2.4c0-0.7,0.6-1.3,1.3-1.3h143.4
	c0.7,0,1.3,0.6,1.3,1.3V140.7z"/>
<path fill="#CCCCCC" d="M290,153.7c0,0.7-0.6,1.3-1.3,1.3H145.3c-0.7,0-1.3-0.6-1.3-1.3v-2.4c0-0.7,0.6-1.3,1.3-1.3h143.4
	c0.7,0,1.3,0.6,1.3,1.3V153.7z"/>
<path fill="#CCCCCC" d="M262,165.7c0,0.7-0.6,1.3-1.3,1.3H145.3c-0.7,0-1.3-0.6-1.3-1.3v-2.4c0-0.7,0.6-1.3,1.3-1.3h115.4
	c0.7,0,1.3,0.6,1.3,1.3V165.7z"/>
<path fill="#CCCCCC" d="M384,197.7c0,0.7-0.6,1.3-1.3,1.3H145.3c-0.7,0-1.3-0.6-1.3-1.3v-2.4c0-0.7,0.6-1.3,1.3-1.3h237.4
	c0.7,0,1.3,0.6,1.3,1.3V197.7z"/>
<g id="Photo_5_">
	<rect x="307" y="89" fill="#FFFFFF" width="77" height="79"/>
	<g>
		<radialGradient id="SVGID_3_" cx="347.6885" cy="146.2799" r="122.4779" gradientUnits="userSpaceOnUse">
			<stop  offset="0" style="stop-color:#9DC6FF"/>
			<stop  offset="1" style="stop-color:#416DA3"/>
		</radialGradient>
		<rect x="313" y="95" fill="url(#SVGID_3_)" width="65" height="67"/>
		<path fill="#39B54A" d="M378,146.3c-26,0.8-47.6,7.7-49.2,15.7H378V146.3z"/>
		<linearGradient id="SVGID_4_" gradientUnits="userSpaceOnUse" x1="340.1088" y1="146.6169" x2="336.8656" y2="163.049">
			<stop  offset="0" style="stop-color:#9DC663"/>
			<stop  offset="0.1378" style="stop-color:#9CC645"/>
			<stop  offset="1" style="stop-color:#8CC63F"/>
		</linearGradient>
		<path fill="url(#SVGID_4_)" d="M356.4,152c-9.1-5.2-24.4-9-43.4-10.7V162h52.2C364.9,159,361.7,155,356.4,152z"/>
	</g>
</g>
<path opacity="8.000000e-002" d="M472,429.2c0,18.1-14.7,32.8-32.8,32.8H32.8C14.7,462,0,447.3,0,429.2v-268
	c0-12.4,10.1-22.5,22.5-22.5h105.8c6.8,0,13.2,3,17.5,8.3l30.5,37.4c4.3,5.3,10.7,8.3,17.5,8.3h255.8c12.4,0,22.5,10.1,22.5,22.5
	V429.2z"/>
<path opacity="3.000000e-002" d="M472,428c0,18.1-14.7,32.8-32.8,32.8H32.8C14.7,460.8,0,446.1,0,428V160
	c0-12.4,10.1-22.5,22.5-22.5h105.8c6.8,0,13.2,3,17.5,8.3l30.5,37.4c4.3,5.3,10.7,8.3,17.5,8.3h255.8c12.4,0,22.5,10.1,22.5,22.5
	V428z"/>
<path opacity="8.000000e-002" d="M472,431.6c0,18.1-14.7,32.8-32.8,32.8H32.8C14.7,464.4,0,449.7,0,431.6v-268
	C0,151.1,10.1,141,22.5,141h105.8c6.8,0,13.2,3,17.5,8.3l30.5,37.4c4.3,5.3,10.7,8.3,17.5,8.3h255.8c12.4,0,22.5,10.1,22.5,22.5
	V431.6z"/>
<path opacity="6.000000e-002" d="M472,433.1c0,18.1-14.7,32.8-32.8,32.8H32.8C14.7,465.9,0,451.2,0,433.1V165
	c0-12.4,10.1-22.5,22.5-22.5h105.8c6.8,0,13.2,3,17.5,8.3l30.5,37.4c4.3,5.3,10.7,8.3,17.5,8.3h255.8c12.4,0,22.5,10.1,22.5,22.5
	V433.1z"/>
<path opacity="6.000000e-002" d="M472,434.6c0,18.1-14.7,32.8-32.8,32.8H32.8C14.7,467.4,0,452.7,0,434.6v-268
	C0,154.1,10.1,144,22.5,144h105.8c6.8,0,13.2,3,17.5,8.3l30.5,37.4c4.3,5.3,10.7,8.3,17.5,8.3h255.8c12.4,0,22.5,10.1,22.5,22.5
	V434.6z"/>
<path opacity="6.000000e-002" d="M472,436.1c0,18.1-14.7,32.8-32.8,32.8H32.8C14.7,468.9,0,454.2,0,436.1V168
	c0-12.4,10.1-22.5,22.5-22.5h105.8c6.8,0,13.2,3,17.5,8.3l30.5,37.4c4.3,5.3,10.7,8.3,17.5,8.3h255.8c12.4,0,22.5,10.1,22.5,22.5
	V436.1z"/>
<path opacity="6.000000e-002" d="M472,437.6c0,18.1-14.7,32.8-32.8,32.8H32.8C14.7,470.4,0,455.7,0,437.6v-268
	C0,157.1,10.1,147,22.5,147h105.8c6.8,0,13.2,3,17.5,8.3l30.5,37.4c4.3,5.3,10.7,8.3,17.5,8.3h255.8c12.4,0,22.5,10.1,22.5,22.5
	V437.6z"/>
<path fill="#F3A02A" d="M472,439.2c0,18.1-14.7,32.8-32.8,32.8H32.8C14.7,472,0,457.3,0,439.2v-268c0-12.4,10.1-22.5,22.5-22.5
	h105.8c6.8,0,13.2,3,17.5,8.3l30.5,37.4c4.3,5.3,10.7,8.3,17.5,8.3h255.8c12.4,0,22.5,10.1,22.5,22.5V439.2z"/>
<radialGradient id="SVGID_5_" cx="236" cy="0" r="305.4263" gradientUnits="userSpaceOnUse">
	<stop  offset="0" style="stop-color:#FFFFFF"/>
	<stop  offset="1" style="stop-color:#FFFFFF;stop-opacity:0"/>
</radialGradient>
<path opacity="0.24" fill="url(#SVGID_5_)" d="M236,305.4c93.5,0,177.2-42,233.2-108.2c1.8-2.2,2.8-4.9,2.8-7.8V0H0l0,189.4
	c0,2.8,1,5.6,2.8,7.8C58.8,263.4,142.5,305.4,236,305.4z"/>
</svg>
